<?xml version="1.0" encoding="utf-8"?>
<!-- Svg Vector Icons : http://www.onlinewebfonts.com/icon -->
<!DOCTYPE svg PUBLIC "-//W3C//DTD SVG 1.1//EN" "http://www.w3.org/Graphics/SVG/1.1/DTD/svg11.dtd">
<svg version="1.1" xmlns="http://www.w3.org/2000/svg" xmlns:xlink="http://www.w3.org/1999/xlink" x="0px" y="0px" viewBox="0 0 1000 1000" enable-background="new 0 0 1000 1000" xml:space="preserve">
<metadata> Svg Vector Icons : http://www.onlinewebfonts.com/icon </metadata>
<g><g transform="translate(0.000000,511.000000) scale(0.100000,-0.100000)"><path d="M2391,4333.3c-299.4-74.4-568.7-235.1-715.4-426c-239.2-313.5-323.6-661.2-337.6-1392.7c-12.1-651.1-50.2-888.3-182.9-1141.5c-72.3-138.7-178.9-247.2-261.3-267.3c-58.3-16.1-58.3-30.1,0-82.4c190.9-174.8,546.6-293.4,960.6-319.5l199-14.1v-207c0-207,2-213,273.3-1155.5c148.7-520.5,269.3-948.5,265.3-952.6c-4-4-186.9,194.9-408,444.1C1965-934,1770-731,1751.9-731c-16.1,0-110.5-14.1-211-30.1c-225.1-36.2-279.3-38.2-265.3-4c6,12.1,110.5,251.2,231.1,528.5l219.1,506.4l-122.6-66.3c-68.3-36.2-217.1-96.5-333.6-130.6C634.6-120,421.5-212.5,286.9-359.2C134.2-524,116.1-590.3,108-994.2l-8-353.7l108.5-90.4c369.8-309.5,994.8-514.5,1955.4-641.1c323.6-42.2,783.8-52.2,942.5-22.1c74.4,14.1,78.4,18.1,106.5,124.6c68.3,271.3,235.1,524.5,426,647.1c50.2,30.1,235.1,102.5,412,158.8c383.8,122.6,570.7,196.9,946.5,379.8c381.8,186.9,365.8,172.8,313.5,277.3c-120.6,239.2-315.5,351.7-906.4,530.6c-283.4,84.4-506.4,174.8-566.7,231.1c-20.1,18.1-36.2,26.1-36.2,18.1c0-6,94.5-247.2,209-534.6c239.1-596.9,247.2-540.6-68.3-492.4c-104.5,16.1-201,30.1-213,30.1s-196.9-194.9-408-432.1c-383.8-428-432.1-478.3-414-428c4,14.1,136.7,436.1,291.4,936.5l281.3,912.4v217v215l92.4,14.1c52.3,6,124.6,12.1,162.8,12.1c122.6,0,472.3,80.4,619,142.7c76.4,32.2,184.9,90.4,237.1,130.6l98.5,70.3l-88.4,56.3c-156.7,100.5-255.2,239.2-329.6,464.2c-32.2,98.5-36.2,192.9-38.2,844c-2,725.5-2,735.5-54.3,926.4c-138.7,508.4-399.9,761.7-785.8,761.7c-104.5,0-128.6,8-190.9,62.3c-138.7,122.6-269.3,164.8-516.5,170.8C2565.8,4349.4,2431.2,4343.4,2391,4333.3z"/><path d="M5550.2,3609.9c0-58.3,48.2-162.8,98.5-215l42.2-44.2l-110.5-82.4c-205-150.7-373.8-428.1-440.1-717.4c-42.2-184.9-42.2-590.8-2-803.9c16.1-86.4,30.1-162.8,30.1-170.8c0-10-30.1-16.1-68.3-16.1c-52.3,0-80.4-14.1-112.5-54.3c-40.2-52.2-44.2-72.3-34.2-247.2c16.1-289.4,146.7-699.4,257.3-801.9c30.1-28.1,62.3-40.2,88.4-34.2c38.2,10,46.2-4,68.3-114.5c64.3-311.5,245.2-643.1,456.2-836c126.6-114.6,369.8-241.2,570.7-295.4c86.4-24.1,203-36.2,341.6-34.2c176.8,0,237.1,8,371.8,54.2c321.5,110.5,588.8,327.6,747.6,610.9c88.4,156.7,176.8,397.9,196.9,534.6c14.1,86.4,20.1,94.5,60.3,84.4c104.5-26.1,211,140.7,301.4,474.3c28.1,102.5,56.3,263.3,62.3,357.7c10,148.7,6,178.9-30.1,237.1c-34.1,52.3-54.2,64.3-114.5,64.3c-72.4,0-72.4,2-60.3,66.3c86.4,424,98.5,791.8,32.1,1002.8c-80.4,259.2-247.2,420-466.2,450.2c-54.3,8-96.5,24.1-96.5,36.2c0,44.2-84.4,182.9-156.7,259.2c-98.5,100.5-231.1,184.9-377.8,237.1c-104.5,36.2-140.7,40.2-319.5,26.1c-255.2-20.1-908.4-22.1-1149.5-4C5558.2,3648,5550.2,3648,5550.2,3609.9z"/><path d="M5419.5-974.2c-247.2-162.8-713.4-375.8-1089.2-498.4c-231.1-76.3-401.9-144.7-458.2-182.9c-162.8-112.5-285.4-343.7-329.6-625c-42.2-253.2-12.1-942.5,44.2-1061.1c28.1-58.3,162.8-136.6,472.3-273.3c540.6-237.1,1215.8-410,1903.1-482.3c329.6-34.2,1115.4-40.2,1418.8-10.1c817.9,82.4,1511.3,265.3,2142.3,562.7c311.5,146.7,319.5,154.7,349.7,327.6c40.2,227.1,34.2,878.2-8,1045c-66.3,267.3-209,472.3-395.9,566.7c-50.2,24.1-174.8,68.3-277.3,98.5c-353.7,100.5-775.7,289.4-1159.6,514.5c-96.5,58.3-176.8,100.5-180.9,96.5s-156.7-480.3-341.6-1061.1c-182.9-578.8-337.6-1057.1-341.6-1061.1c-12.1-12.1-48.2,84.4-170.8,438.1l-106.5,311.5l82.4,128.6c223.1,343.7,227.1,608.9,10,717.5c-112.5,56.3-450.1,54.3-546.6-2c-211-124.6-207-357.7,10-707.4l90.4-144.7l-124.6-357.7c-68.3-196.9-132.6-365.8-140.7-375.8c-16.1-18.1-58.3,112.5-462.2,1388.7c-126.6,401.9-237.1,729.5-249.2,727.5C5550.2-893.8,5485.8-929.9,5419.5-974.2z"/></g></g>
</svg>